<svg id="Group_629" data-name="Group 629" xmlns="http://www.w3.org/2000/svg" xmlns:xlink="http://www.w3.org/1999/xlink" width="53.705" height="53.706" viewBox="0 0 53.705 53.706">
  <defs>
    <linearGradient id="linear-gradient" x1="0.963" y1="0.037" x2="-0.066" y2="1.066" gradientUnits="objectBoundingBox">
      <stop offset="0" stop-color="#ff5209"/>
      <stop offset="1" stop-color="#ff8c09"/>
    </linearGradient>
    <linearGradient id="linear-gradient-2" x1="1.625" y1="-0.5" x2="-1.037" y2="1.595" xlink:href="#linear-gradient"/>
  </defs>
  <g id="Group_628" data-name="Group 628" transform="translate(0)">
    <path id="Path_4782" data-name="Path 4782" d="M336.349,607.272h-20.81a16.466,16.466,0,0,1-16.448-16.447v-20.81a16.466,16.466,0,0,1,16.448-16.448h20.81A16.466,16.466,0,0,1,352.8,570.015v20.81A16.466,16.466,0,0,1,336.349,607.272Zm-20.81-51.71a14.469,14.469,0,0,0-14.453,14.453v20.81a14.469,14.469,0,0,0,14.453,14.453h20.81A14.468,14.468,0,0,0,350.8,590.825v-20.81a14.468,14.468,0,0,0-14.452-14.453Z" transform="translate(-299.091 -553.567)" fill="url(#linear-gradient)"/>
  </g>
  <path id="Path_4783" data-name="Path 4783" d="M326.794,586.625a5.723,5.723,0,0,0,5.33,1.88,7.567,7.567,0,0,0,4.809-3.189,11.274,11.274,0,0,0,1.867-5.55l.008-.1a9.534,9.534,0,0,0-5.411-9.483c-4.03-1.741-9.68-.857-12.64,2.517a12.1,12.1,0,0,0-2.209,3.748,6.982,6.982,0,0,0,.064,5.255,5.49,5.49,0,0,0,1.383,2c.141.127,1.966,1.318,2.025,1.125.184-.616.379-1.328.568-1.983a.907.907,0,0,0-.153-.816,5.325,5.325,0,0,1-.907-4.581,7.259,7.259,0,0,1,3.182-4.052,6.86,6.86,0,0,1,7.138-.194c2.732,1.63,3.179,5.1,2.531,7.984a7.283,7.283,0,0,1-1.31,3,3.691,3.691,0,0,1-2.907,1.473,2.338,2.338,0,0,1-2.137-2.951l.979-3.671a3.235,3.235,0,0,0-.174-2.969,2.25,2.25,0,0,0-2.025-.8,3.266,3.266,0,0,0-2.668,2.913,6.746,6.746,0,0,0,.559,3.459l-1.921,7.7a10.725,10.725,0,0,0-.284,3.463l.212,2.605a.309.309,0,0,0,.569.141l1.356-2.124a10.734,10.734,0,0,0,1.433-3.465Z" transform="translate(-301.599 -555.648)" fill="url(#linear-gradient-2)"/>
</svg>
